# AST/ASF file generated using VICON BodyLanguage
# -----------------------------------------------
:version 1.10
:name VICON
:units
  mass 1.0
  length 0.45
  angle deg
:documentation
   .ast/.asf automatically generated from VICON data using
   VICON BodyBuilder and BodyLanguage model FoxedUp or BRILLIANT.MOD
:root
   order TX TY TZ RX RY RZ
   axis XYZ
   position 0 0 0  
   orientation 0 0 0 
:bonedata
  begin
     id 1 
     name lhipjoint
     direction 0.596438 -0.722117 0.35044 
     length 2.43043 
     axis 0 0 0  XYZ
  end
  begin
     id 2 
     name lfemur
     direction 0.34202 -0.939693 0  
     length 7.0339  
     axis 0 0 20  XYZ
    dof rx ry rz
    limits (-160.0 20.0)
           (-70.0 70.0)
           (-60.0 70.0)
  end
  begin
     id 3 
     name ltibia
     direction 0.34202 -0.939693 0   
     length 7.56602   
     axis 0 0 20   XYZ
    dof rx
    limits (-10.0 170.0)
  end
  begin
     id 4 
     name lfoot
     direction 0.0985677 -0.270812 0.957572   
     length 1.85172   
     axis -90 7.62852e-016 20   XYZ
    dof rx rz
    limits (-45.0 90.0)
           (-70.0 20.0)
  end
  begin
     id 5 
     name ltoes
     direction 1.53534e-011 -4.21843e-011 1   
     length 0.929904   
     axis -90 7.62852e-016 20   XYZ
    dof rx
    limits (-90.0 20.0)
  end
  begin
     id 6 
     name rhipjoint
     direction -0.585088 -0.729594 0.354068   
     length 2.40552  
     axis 0 0 0  XYZ 
  end
  begin
     id 7 
     name rfemur
     direction -0.34202 -0.939693 0   
     length 7.12573   
     axis 0 0 -20   XYZ
    dof rx ry rz
    limits (-160.0 20.0)
           (-70.0 70.0)
           (-70.0 60.0)
  end
  begin
     id 8 
     name rtibia
     direction -0.34202 -0.939693 0   
     length 7.35777   
     axis 0 0 -20   XYZ
    dof rx
    limits (-10.0 170.0)
 end
 begin
     id 9 
     name rfoot
     direction -0.120907 -0.33219 0.935431   
     length 2.0994  
     axis -90 -7.62852e-016 -20   XYZ
    dof rx rz
    limits (-45.0 90.0)
           (-20.0 70.0)
  end
  begin
     id 10 
     name rtoes
     direction -1.53577e-011 -4.21787e-011 1   
     length 1.04244   
     axis -90 -7.62852e-016 -20   XYZ
    dof rx
    limits (-90.0 20.0)
  end
  begin
     id 11 
     name lowerback
     direction 0.00268363 0.993603 -0.112896   
     length 2.15839   
     axis 0 0 0   XYZ
    dof rx ry rz
    limits (-20.0 45.0)
           (-30.0 30.0)
           (-30.0 30.0)
  end
  begin
     id 12 
     name upperback
     direction 0.0272563 0.999411 -0.0208618   
     length 2.16443   
     axis 0 0 0   XYZ
    dof rx ry rz
    limits (-20.0 45.0)
           (-30.0 30.0)
           (-30.0 30.0)
  end
  begin
     id 13 
     name thorax
     direction 0.0254655 0.999174 0.0316806   
     length 2.19003   
     axis 0 0 0   XYZ
    dof rx ry rz
    limits (-20.0 45.0)
           (-30.0 30.0)
           (-30.0 30.0)
  end
  begin
     id 14 
     name lowerneck
     direction -0.0102178 0.988048 0.15381   
     length 1.61507   
     axis 0 0 0   XYZ
    dof rx ry rz
    limits (-20.0 45.0)
           (-30.0 30.0)
           (-30.0 30.0)
  end
  begin
     id 15 
     name upperneck
     direction -0.0061965 0.994088 -0.108398   
     length 1.64042   
     axis 0 0 0   XYZ
    dof rx ry rz
    limits (-20.0 45.0)
           (-30.0 30.0)
           (-30.0 30.0)
  end
  begin
     id 16
     name head
     direction -0.00151929 0.998591 -0.0530385  
     length 1.64343  
     axis 0 0 0   XYZ
    dof rx ry rz
    limits (-20.0 45.0)
           (-30.0 30.0)
           (-30.0 30.0)
  end
  begin
     id 17 
     name lclavicle
     direction 0.948974 0.284245 -0.136574  
     length 3.3483  
     axis 0 0 0   XYZ
    dof ry rz
    limits (-20.0 10.0)
           (0.0 20.0)
  end
  begin
     id 18 
     name lhumerus
     direction 1 -4.48961e-011 1.68576e-027   
     length 4.93485   
     axis -180 -30 -90   XYZ
    dof rx ry rz
    limits (-60.0 90.0)
           (-90.0 90.0)
           (-90.0 90.0)
  end
  begin
     id 19
     name lradius
     direction 1 -4.48965e-011 -2.46405e-027   
     length 3.41719   
     axis -180 -30 -90   XYZ
    dof rx
    limits (-10.0 170.0)
  end
  begin
     id 20
     name lwrist
     direction 1 -4.48968e-011 -8.00486e-028   
     length 1.7086   
     axis 3.27501e-015 90 90   XYZ
    dof ry
    limits (-180.0 0.0)
 end
  begin
     id 21 
     name lhand
     direction 1 -4.48977e-011 -1.60161e-027   
     length 0.6241   
     axis 1.02148e-015 90 90   XYZ
    dof rx rz
    limits (-90.0 90.0)
           (-45.0 45.0)
  end
  begin
     id 22 
     name lfingers
     direction 1 -4.49049e-011 -3.21275e-027   
     length 0.503166   
     axis 2.04295e-015 90 90   XYZ
    dof rx
    limits (0.0 90.0)
  end
  begin
     id 23
     name lthumb
     direction 0.707107 -6.34975e-011 0.707107   
     length 0.722448   
     axis -90 45 -1.62303e-014   XYZ
    dof rx rz
    limits (-45.0 45.0)
           (-45.0 45.0)
  end
  begin
     id 24 
     name rclavicle
     direction -0.904485 0.355099 -0.236246   
     length 3.18329  
     axis 0 0 0   XYZ 
    dof ry rz
    limits (-10.0 20.0)
           (-20.0 0.0)
  end
  begin
     id 25 
     name rhumerus
     direction -1 -4.48953e-011 1.32816e-027  
     length 5.22034   
     axis -180 30 90   XYZ
    dof rx ry rz
    limits (-90.0 60.0)
           (-90.0 90.0)
           (-90.0 90.0)
  end
  begin
     id 26 
     name rradius
     direction -1 -4.48965e-011 -3.93727e-027   
     length 3.41809   
     axis -180 30 90   XYZ
    dof rx
    limits (-10.0 170.0)
  end
  begin
     id 27 
     name rwrist
     direction -1 -4.48962e-011 -8.003e-028   
     length 1.70904   
     axis 3.27501e-015 -90 -90   XYZ
    dof ry
    limits (-180.0 0.0)
  end
  begin
     id 28
     name rhand
     direction -1 -4.49008e-011 -1.60365e-027   
     length 0.77534   
     axis 1.02148e-015 -90 -90   XYZ
    dof rx rz
    limits (-90.0 90.0)
           (-45.0 45.0)
  end
  begin
     id 29
     name rfingers
     direction -1 -4.49001e-011 -3.2064e-027   
     length 0.625099   
     axis 2.04295e-015 -90 -90   XYZ
    dof rx
    limits (0.0 90.0)
  end
  begin
     id 30
     name rthumb
     direction -0.707107 -6.34989e-011 0.707107   
     length 0.897521   
     axis -90 -45 1.62303e-014   XYZ
    dof rx rz
    limits (-45.0 45.0)
           (-45.0 45.0)
  end
:hierarchy
  begin
    root lhipjoint rhipjoint lowerback
    lhipjoint lfemur
    lfemur ltibia
    ltibia lfoot
    lfoot ltoes
    rhipjoint rfemur
    rfemur rtibia
    rtibia rfoot
    rfoot rtoes
    lowerback upperback
    upperback thorax
    thorax lowerneck lclavicle rclavicle
    lowerneck upperneck
    upperneck head
    lclavicle lhumerus
    lhumerus lradius
    lradius lwrist
    lwrist lhand lthumb
    lhand lfingers
    rclavicle rhumerus
    rhumerus rradius
    rradius rwrist
    rwrist rhand rthumb
    rhand rfingers
  end

#!OML:ASF \\sashay\E\Suitcase\Project 1\Capture day 1\Session 1\Male1.ASF
:FULLY-SPECIFIED
:DEGREES
537
root 0.497095 17.2729 -22.2769 6.05839 8.27588 4.75064
lowerback 5.81442 -1.37151 -6.80405
upperback -0.484617 -2.27434 0.881411
thorax -3.47077 -0.994361 4.93527
lowerneck -11.3527 -0.18364 -3.8715
upperneck 27.6029 0.771377 -0.361778
head 10.7322 -0.0774947 0.633514
rclavicle 2.33572e-014 -1.63003e-014
rhumerus -26.5892 -23.0748 -69.1139
rradius 25.9229
rwrist -17.4168
rhand -6.75723 20.1005
rfingers 7.12502
rthumb 19.1043 -8.98118
lclavicle 2.33572e-014 -1.63003e-014
lhumerus -22.7636 -18.8779 85.1611
lradius 43.8453
lwrist -1.31852
lhand -0.875817 44.1545
lfingers 7.12502
lthumb 24.7512 72.5731
rfemur -34.626 -1.12245 11.7852
rtibia 16.3718
rfoot -15.6931 -17.4167
rtoes -2.50955
lfemur 4.22294 -3.38413 -31.4868
ltibia 13.6572
lfoot -19.5715 -7.37222
ltoes 12.791
538
root 0.494301 17.2581 -22.1633 6.29039 8.29598 5.09902
lowerback 5.7571 -1.59573 -6.72587
upperback -0.520606 -2.57393 0.617334
thorax -3.45095 -1.14683 4.63571
lowerneck -11.3787 -0.0321028 -3.83957
upperneck 27.5375 0.932106 -0.204103
head 10.7076 0.0173302 0.704137
rclavicle -1.20762e-014 7.55382e-015
rhumerus -26.5786 -22.3668 -69.7396
rradius 26.0896
rwrist -17.7853
rhand -6.7014 20.3022
rfingers 7.12502
rthumb 19.158 -8.77419
lclavicle -1.20762e-014 7.55382e-015
lhumerus -22.917 -18.7171 84.8232
lradius 43.9981
lwrist -1.72121
lhand 0.0467262 45.3793
lfingers 7.12502
lthumb 25.6351 73.6736
rfemur -34.8364 -2.03792 12.0434
rtibia 16.8922
rfoot -15.204 -17.4163
rtoes -1.51937
lfemur 4.43878 -3.61169 -31.8393
ltibia 13.729
lfoot -19.4713 -6.81374
ltoes 11.9091
539
root 0.486216 17.2486 -22.046 6.23775 8.601 5.01114
lowerback 5.88975 -1.78067 -6.39119
upperback -0.416383 -2.80414 0.573247
thorax -3.40439 -1.27219 4.42151
lowerneck -11.5476 0.00782604 -3.76946
upperneck 27.4909 0.964099 -0.153847
head 10.7222 0.0445351 0.714366
rclavicle 1.45113e-014 -7.95139e-015
rhumerus -26.3898 -23.1366 -69.8491
rradius 25.7484
rwrist -16.6874
rhand -6.82724 20.3181
rfingers 7.12502
rthumb 19.037 -8.77028
lclavicle 1.45113e-014 -7.95139e-015
lhumerus -22.8987 -18.9392 84.7409
lradius 43.9902
lwrist -1.67405
lhand -0.331039 44.8042
lfingers 7.12502
lthumb 25.2733 73.1502
rfemur -34.6229 -3.05267 12.7952
rtibia 17.3545
rfoot -14.7747 -17.3591
rtoes -0.905043
lfemur 4.87682 -3.88354 -31.656
ltibia 13.8933
lfoot -19.3711 -6.43921
ltoes 11.1965
540
root 0.477153 17.2396 -21.9241 6.31221 8.63733 4.87971
lowerback 5.77673 -1.81172 -6.1791
upperback -0.283072 -2.81569 0.649051
thorax -3.20616 -1.29158 4.37342
lowerneck -11.8385 -0.0150241 -3.88685
upperneck 27.4305 0.959711 -0.110467
head 10.757 0.0354985 0.750225
rclavicle 2.48481e-016 -2.22639e-014
rhumerus -26.293 -22.8297 -69.996
rradius 25.9221
rwrist -17.2338
rhand -7.0402 20.5339
rfingers 7.12502
rthumb 18.8322 -8.57446
lclavicle 2.48481e-016 -2.22639e-014
lhumerus -22.7111 -19.2671 84.8712
lradius 43.9809
lwrist -1.57542
lhand -0.1528 44.9659
lfingers 7.12502
lthumb 25.444 73.2876
rfemur -34.5961 -3.22033 13.3082
rtibia 17.9326
rfoot -14.6945 -17.6201
rtoes -0.40384
lfemur 5.11124 -3.93196 -31.4364
ltibia 14.051
lfoot -19.1626 -6.08444
ltoes 10.5334
541
root 0.473184 17.2274 -21.8004 6.40769 8.73851 5.07806
lowerback 6.00844 -1.71058 -6.25758
upperback -0.457674 -2.71103 0.570938
thorax -3.5316 -1.22272 4.34333
lowerneck -11.5491 -0.147217 -3.6629
upperneck 27.4334 0.732462 -0.203502
head 10.7061 -0.0545046 0.649384
rclavicle -1.55549e-014 0
rhumerus -27.0159 -22.9753 -69.6979
rradius 26.236
rwrist -17.2603
rhand -7.33184 20.1736
rfingers 7.12502
rthumb 18.5516 -8.96183
lclavicle -1.55549e-014 0
lhumerus -23.1986 -19.5213 85.3299
lradius 43.9687
lwrist -2.02414
lhand -0.45176 44.4006
lfingers 7.12502
lthumb 25.1576 72.7629
rfemur -34.4542 -3.82507 13.5809
rtibia 18.4409
rfoot -14.4491 -17.3102
rtoes -0.440185
lfemur 5.35286 -3.93636 -31.5732
ltibia 14.2857
lfoot -18.9447 -5.86572
ltoes 9.95406
542
root 0.465194 17.2215 -21.6666 6.57203 9.08562 5.05302
lowerback 5.88979 -1.91532 -5.95213
upperback -0.494664 -2.95638 0.537537
thorax -3.49021 -1.35152 4.15135
lowerneck -11.535 -0.0849751 -3.71743
upperneck 27.4037 0.807347 -0.117325
head 10.6898 -0.0156521 0.698722
rclavicle -5.37216e-014 2.66371e-014
rhumerus -27.042 -23.348 -69.6616
rradius 25.8792
rwrist -16.6791
rhand -6.94714 20.6717
rfingers 7.12502
rthumb 18.9217 -8.428
lclavicle -5.37216e-014 2.66371e-014
lhumerus -23.3645 -19.6367 85.3452
lradius 43.7939
lwrist -2.19455
lhand -0.34877 44.0717
lfingers 7.12502
lthumb 25.2563 72.4201
rfemur -34.2122 -4.11626 13.9103
rtibia 18.915
rfoot -14.5277 -17.1862
rtoes -0.467531
lfemur 5.49319 -3.97357 -31.3608
ltibia 14.587
lfoot -18.7635 -5.89238
ltoes 9.48708
543
root 0.450947 17.217 -21.5282 6.52718 9.63757 5.02326
lowerback 5.89439 -2.09554 -5.83429
upperback -0.3007 -3.17956 0.605627
thorax -3.26741 -1.47617 4.16707
lowerneck -11.9262 -0.0909307 -3.75854
upperneck 27.3947 0.82491 -0.109895
head 10.7637 -0.0121021 0.711723
rclavicle -2.83765e-014 7.15625e-015
rhumerus -27.0151 -23.556 -69.6511
rradius 25.8486
rwrist -16.593
rhand -6.61316 20.9831
rfingers 7.12502
rthumb 19.2428 -8.08492
lclavicle -2.83765e-014 7.15625e-015
lhumerus -23.0521 -19.6781 85.445
lradius 43.4874
lwrist -2.28882
lhand 0.144089 44.5813
lfingers 7.12502
lthumb 25.7284 72.8622
rfemur -33.6238 -4.20282 14.1103
rtibia 19.3896
rfoot -14.7477 -17.1573
rtoes -0.69172
lfemur 5.9605 -4.35649 -31.1518
ltibia 14.7383
lfoot -18.3989 -5.7891
ltoes 8.93014
